<?xml version="1.0" encoding="utf-8"?>
<!-- Generator: Adobe Illustrator 27.0.0, SVG Export Plug-In . SVG Version: 6.00 Build 0)  -->
<svg version="1.1" id="Calque_1" xmlns="http://www.w3.org/2000/svg" xmlns:xlink="http://www.w3.org/1999/xlink" x="0px" y="0px"
	 viewBox="0 0 800 800" style="enable-background:new 0 0 800 800;" xml:space="preserve">
<style type="text/css">
	.st0{fill:#DBB307;}
</style>
<path class="st0" d="M757.7,716.9l-46.5-159.3c-8-27.5-33.7-46.8-62.3-46.8h-44.7L462.1,46C453.6,18,429.2,0,400,0c0,0,0,0,0,0
	c-29.2,0-53.6,18-62.1,46l-142,464.9h-44.7c-28.7,0-54.3,19.2-62.3,46.8L42.3,716.9c-5.8,19.8-2,40.6,10.4,57.2
	c12.4,16.5,31.3,26,52,26h590.7c20.6,0,39.6-9.5,52-26C759.7,757.5,763.5,736.7,757.7,716.9z M223.3,593l34.8-114
	c43.9,17.5,91.8,27.1,141.9,27.1c50.1,0,98-9.6,141.9-27.1l34.8,114c1.1,3.7,0,7.5-2.7,9.1c-52.4,31.5-112.5,48.1-174,48.1
	c-61.4,0-121.6-16.6-174-48.1C223.3,600.4,222.2,596.7,223.3,593z M275.7,421.6l41.1-134.5c25.7,13,54.2,19.9,83.3,19.9
	c29.1,0,57.6-6.8,83.3-19.9l41.1,134.5c-38.3,15.9-80.2,24.8-124.3,24.8C355.9,446.4,313.9,437.5,275.7,421.6z M385.9,60.7
	c2.9-9.4,10.8-10.4,14.1-10.4c3.3,0,11.2,1,14.1,10.4l51.3,168c-1.5,0.9-3.1,1.9-4.7,2.8c-18.6,10.4-39.5,15.8-60.7,15.8
	c-21.3,0-42.2-5.4-60.7-15.8c-1.6-0.9-3.1-1.8-4.7-2.8L385.9,60.7z M707.1,743.9c-1.6,2.2-5.4,5.9-11.8,5.9H104.7
	c-6.4,0-10.1-3.7-11.8-5.9c-1.6-2.2-4.1-6.8-2.3-12.9L137,571.7c1.8-6.2,7.6-10.6,14.1-10.6h29.4l-5.3,17.2
	c-7.9,25.8,2.4,53.3,24.9,66.9c60.2,36.2,129.3,55.3,199.9,55.3c70.6,0,139.7-19.1,199.9-55.3c22.6-13.6,32.8-41.1,24.9-66.9
	l-5.3-17.2h29.4c6.5,0,12.3,4.4,14.1,10.6l46.5,159.3C711.2,737.1,708.7,741.7,707.1,743.9z"/>
</svg>
