<svg width="349" height="79" viewBox="0 0 349 79" fill="none" xmlns="http://www.w3.org/2000/svg">
<rect x="22" y="54" width="327" height="22" rx="11" fill="#7D82B8" fill-opacity="0.7"/>
<path d="M10.688 48.104C13.632 48.104 15.104 46.696 15.104 43.88C15.104 42.9413 14.1227 41.64 12.16 39.976C9.216 37.416 7.44533 35.7947 6.848 35.112C4.88533 32.936 3.904 30.76 3.904 28.584C3.904 24.7013 5.46133 21.6293 8.576 19.368C11.3493 17.3627 14.7413 16.36 18.752 16.36C20.032 16.36 21.8667 16.5947 24.256 17.064C26.688 17.5333 28.5653 17.768 29.888 17.768C32.192 17.768 33.344 20.4133 33.344 25.704C33.344 28.7333 32.1493 30.248 29.76 30.248C28.096 30.248 26.496 29.032 24.96 26.6C23.4667 24.168 22.016 22.952 20.608 22.952C17.4933 22.952 15.936 24.0827 15.936 26.344C15.936 27.6667 17.6853 29.16 21.184 30.824C25.92 33.0427 29.1413 34.8987 30.848 36.392C34.3467 39.4213 36.096 43.304 36.096 48.04C36.096 53.2027 34.4107 57.448 31.04 60.776C27.712 64.104 23.488 65.768 18.368 65.768C13.12 65.768 8.85333 64.488 5.568 61.928C1.94133 59.1547 0.128 55.208 0.128 50.088C0.128 47.528 1.45067 46.248 4.096 46.248C4.94933 46.248 5.824 46.568 6.72 47.208C7.65867 47.8053 8.98133 48.104 10.688 48.104ZM52.7485 22.888C52.7485 26.1733 51.6605 29.9067 49.4845 34.088C47.0525 38.9093 44.3858 41.32 41.4845 41.32C40.0338 41.32 39.3085 40.7013 39.3085 39.464C39.3085 39.1227 39.9272 38.12 41.1645 36.456C42.4018 34.792 43.0205 33.32 43.0205 32.04C43.0205 31.4853 42.2525 30.2053 40.7165 28.2C39.1805 26.152 38.4125 24.3387 38.4125 22.76C38.4125 20.712 39.1165 18.7493 40.5245 16.872C42.0605 14.824 43.8312 13.8 45.8365 13.8C48.0978 13.8 49.8685 14.8027 51.1485 16.808C52.2152 18.5147 52.7485 20.5413 52.7485 22.888ZM71.292 20.904C71.292 22.7387 70.2893 24.3173 68.284 25.64C66.5347 26.8347 64.7 27.432 62.78 27.432C61.116 27.432 59.708 27.048 58.556 26.28C57.2333 25.3413 56.572 24.0827 56.572 22.504C56.572 20.84 57.6173 19.3893 59.708 18.152C61.5 17.0427 63.3133 16.488 65.148 16.488C66.684 16.488 68.028 16.8507 69.18 17.576C70.588 18.3867 71.292 19.496 71.292 20.904ZM55.228 36.072C55.228 34.024 56.9133 32.2107 60.284 30.632C63.2707 29.224 66.0013 28.52 68.476 28.52C69.2867 28.52 70.0547 29.0107 70.78 29.992C71.548 30.9307 71.8467 31.784 71.676 32.552C71.676 33.7467 71.42 35.5173 70.908 37.864C70.4387 40.2107 70.204 42.0027 70.204 43.24C70.204 45.8427 71.0147 49.2987 72.636 53.608C74.2573 57.9173 75.068 60.1147 75.068 60.2C75.068 62.2907 73.788 63.912 71.228 65.064C69.2227 65.9173 67.0253 66.344 64.636 66.344C62.1187 66.344 59.9213 65.9173 58.044 65.064C55.612 63.9547 54.396 62.2907 54.396 60.072C54.396 59.7733 55.1213 57.96 56.572 54.632C58.0653 51.2613 58.876 48.04 59.004 44.968C59.0467 43.56 58.8973 42.1733 58.556 40.808C58.3427 40.296 58.0227 39.6987 57.596 39.016C57.0413 38.7173 56.508 38.3973 55.996 38.056C55.484 37.7147 55.228 37.0533 55.228 36.072ZM93.2145 36.2C91.8492 36.2 90.8252 37.224 90.1425 39.272C89.6732 40.68 89.4385 42.2587 89.4385 44.008C89.4385 45.544 89.6732 46.8667 90.1425 47.976C90.7825 49.4693 91.7638 50.216 93.0865 50.216C93.9398 50.216 94.5798 50.024 95.0065 49.64C95.6892 49.0853 96.0305 46.312 96.0305 41.32C96.0305 37.9067 95.0918 36.2 93.2145 36.2ZM108.255 50.344C108.425 51.0267 109.023 52.4347 110.047 54.568C110.943 56.2747 111.391 57.64 111.391 58.664C111.391 60.6693 109.812 62.376 106.655 63.784C104.052 64.9787 101.599 65.576 99.2945 65.576C98.4838 65.576 97.5025 65.2987 96.3505 64.744C95.1985 64.1467 94.3238 63.848 93.7265 63.848C93.1292 63.848 92.2118 64.0613 90.9745 64.488C89.7372 64.872 88.7772 65.064 88.0945 65.064C84.8518 65.064 82.1425 62.9947 79.9665 58.856C78.1745 55.4 77.2785 51.9013 77.2785 48.36C77.2785 44.6053 78.2598 40.6373 80.2225 36.456C82.5692 31.464 85.4065 28.968 88.7345 28.968C90.8678 28.968 92.9585 29.5867 95.0065 30.824C95.4758 31.1227 96.0945 31.592 96.8625 32.232C97.4598 32.7013 97.8012 32.936 97.8865 32.936C97.7585 29.7787 97.2252 27.944 96.2865 27.432C95.3905 26.92 94.8998 26.6213 94.8145 26.536C94.3452 26.152 94.1105 25.512 94.1105 24.616C94.1105 22.9093 95.3478 21.3307 97.8225 19.88C101.065 18.0027 104.244 17.064 107.359 17.064C108.681 17.064 109.236 17.896 109.023 19.56L107.807 28.2C107.551 29.9493 107.273 32.8933 106.975 37.032C106.761 41.9813 107.188 46.4187 108.255 50.344ZM132.91 51.24C133.593 51.112 134.531 50.728 135.726 50.088C136.793 49.4907 137.646 49.192 138.286 49.192C139.481 49.192 140.505 49.5973 141.358 50.408C142.254 51.176 142.702 52.1573 142.702 53.352C142.702 56.9787 141.358 59.9867 138.67 62.376C136.025 64.7227 132.867 65.896 129.198 65.896C124.505 65.896 120.793 64.0613 118.062 60.392C115.587 57.1067 114.35 53.0533 114.35 48.232C114.35 43.2827 115.715 38.888 118.446 35.048C121.518 30.824 125.443 28.712 130.222 28.712C133.678 28.712 136.515 29.6507 138.734 31.528C141.123 33.5333 142.318 36.2213 142.318 39.592C142.318 41 141.55 42.0667 140.014 42.792C138.649 43.432 136.921 43.752 134.83 43.752C132.398 43.752 130.371 43.368 128.75 42.6C128.281 42.3867 127.875 42.28 127.534 42.28C126.937 42.28 126.489 42.5787 126.19 43.176C126.062 43.6453 125.998 44.136 125.998 44.648C125.998 46.056 126.574 47.464 127.726 48.872C128.921 50.28 130.222 51.0693 131.63 51.24H132.91ZM129.838 34.216C128.771 34.216 127.79 34.536 126.894 35.176C126.041 35.7733 125.614 36.584 125.614 37.608C125.614 38.4187 126.403 38.824 127.982 38.824C130.755 38.824 132.227 38.76 132.398 38.632C132.91 38.5893 133.166 38.184 133.166 37.416C133.166 36.4773 132.825 35.7093 132.142 35.112C131.502 34.5147 130.734 34.216 129.838 34.216ZM147.532 38.824C146.679 38.3973 146.167 38.0987 145.996 37.928C145.484 37.4587 145.228 36.776 145.228 35.88C145.228 34.216 146.465 32.6587 148.94 31.208C151.628 29.6293 154.017 28.84 156.108 28.84C157.303 28.84 157.857 29.5653 157.772 31.016C157.772 31.2293 157.793 31.5493 157.836 31.976C157.964 32.6587 158.199 33 158.54 33C158.668 33 158.817 32.936 158.988 32.808C160.225 31.784 161.484 30.76 162.764 29.736C164.001 28.8827 165.644 28.456 167.692 28.456C170.807 28.456 173.025 28.9253 174.348 29.864C175.457 30.632 176.119 31.976 176.332 33.896C176.375 34.28 176.396 36.4347 176.396 40.36C176.396 43.2187 177.249 47.2507 178.956 52.456C180.663 57.6613 181.516 60.712 181.516 61.608C181.516 64.2533 178.252 65.576 171.724 65.576C169.719 65.576 168.012 65.128 166.604 64.232C164.897 63.2507 164.044 61.8 164.044 59.88C164.044 59.4107 164.236 58.7067 164.62 57.768C165.047 56.8293 165.281 56.104 165.324 55.592C165.964 48.296 166.284 44.4987 166.284 44.2C166.284 39.336 165.217 36.904 163.084 36.904C161.633 36.904 160.716 37.9067 160.332 39.912C160.204 40.6373 160.14 42.2373 160.14 44.712C160.14 46.248 160.396 48.424 160.908 51.24C161.463 54.0133 161.74 55.9547 161.74 57.064C161.74 59.9653 160.865 62.1627 159.116 63.656C157.409 65.1067 155.127 65.832 152.268 65.832C149.964 65.832 148.3 65.576 147.276 65.064C145.74 64.3387 144.972 62.9733 144.972 60.968C144.972 60.1147 145.569 57.896 146.764 54.312C148.087 50.344 148.897 47.3147 149.196 45.224C149.153 43.176 148.961 41.5973 148.62 40.488C148.321 40.1893 147.959 39.6347 147.532 38.824ZM208.35 57.512C208.35 60.1147 207.027 62.2267 204.382 63.848C202.163 65.2133 199.667 65.896 196.894 65.896C189.854 65.896 186.334 62.568 186.334 55.912C186.334 54.0773 186.718 51.3253 187.486 47.656C188.254 43.9867 188.638 41.192 188.638 39.272C188.638 37.4373 188.169 36.328 187.23 35.944C186.334 35.8587 185.459 35.7733 184.606 35.688C183.625 35.4747 183.113 34.6853 183.07 33.32C182.985 31.784 183.262 30.7387 183.902 30.184C184.329 29.8 185.075 29.608 186.142 29.608C186.27 29.608 186.462 29.6293 186.718 29.672C186.974 29.672 187.166 29.672 187.294 29.672C188.574 29.672 189.449 29.352 189.918 28.712C190.643 27.7733 191.283 26.408 191.838 24.616C192.393 22.824 192.862 21.672 193.246 21.16C193.971 20.1787 195.123 19.688 196.702 19.688C199.475 19.688 200.862 20.968 200.862 23.528C200.862 23.784 200.841 24.1893 200.798 24.744C200.798 25.2987 200.798 25.704 200.798 25.96C200.798 27.2827 201.033 28.264 201.502 28.904C202.27 29.928 203.251 30.44 204.446 30.44C204.659 30.44 204.979 30.4187 205.406 30.376C205.833 30.3333 206.131 30.312 206.302 30.312C207.283 30.312 207.774 31.2293 207.774 33.064C207.774 34.728 206.942 35.56 205.278 35.56C205.065 35.56 204.745 35.56 204.318 35.56C203.891 35.5173 203.571 35.496 203.358 35.496C201.054 35.496 199.902 36.9253 199.902 39.784C199.902 41.6187 200.329 44.1573 201.182 47.4C202.163 51.1973 203.23 53.3733 204.382 53.928C205.278 54.2267 206.153 54.5467 207.006 54.888C207.902 55.2293 208.35 56.104 208.35 57.512ZM226.48 20.904C226.48 22.7387 225.477 24.3173 223.472 25.64C221.722 26.8347 219.888 27.432 217.968 27.432C216.304 27.432 214.896 27.048 213.744 26.28C212.421 25.3413 211.76 24.0827 211.76 22.504C211.76 20.84 212.805 19.3893 214.896 18.152C216.688 17.0427 218.501 16.488 220.336 16.488C221.872 16.488 223.216 16.8507 224.368 17.576C225.776 18.3867 226.48 19.496 226.48 20.904ZM210.416 36.072C210.416 34.024 212.101 32.2107 215.472 30.632C218.458 29.224 221.189 28.52 223.664 28.52C224.474 28.52 225.242 29.0107 225.968 29.992C226.736 30.9307 227.034 31.784 226.864 32.552C226.864 33.7467 226.608 35.5173 226.096 37.864C225.626 40.2107 225.392 42.0027 225.392 43.24C225.392 45.8427 226.202 49.2987 227.824 53.608C229.445 57.9173 230.256 60.1147 230.256 60.2C230.256 62.2907 228.976 63.912 226.416 65.064C224.41 65.9173 222.213 66.344 219.824 66.344C217.306 66.344 215.109 65.9173 213.232 65.064C210.8 63.9547 209.584 62.2907 209.584 60.072C209.584 59.7733 210.309 57.96 211.76 54.632C213.253 51.2613 214.064 48.04 214.192 44.968C214.234 43.56 214.085 42.1733 213.744 40.808C213.53 40.296 213.21 39.6987 212.784 39.016C212.229 38.7173 211.696 38.3973 211.184 38.056C210.672 37.7147 210.416 37.0533 210.416 36.072ZM255.122 24.936C255.122 26.3013 254.802 27.4747 254.162 28.456C253.437 29.608 252.434 30.184 251.154 30.184C249.703 30.184 248.338 29.224 247.058 27.304C245.778 25.3413 244.754 24.36 243.986 24.36C242.919 24.36 242.386 25.128 242.386 26.664C242.386 28.0293 243.111 29.928 244.562 32.36C246.098 34.9627 247.549 36.3493 248.914 36.52C249.853 36.52 250.834 36.5627 251.858 36.648C252.882 36.7333 253.394 37.352 253.394 38.504C253.394 41.2347 252.647 42.6 251.154 42.6C251.026 42.6 250.855 42.5787 250.642 42.536C250.386 42.536 250.194 42.536 250.066 42.536C249.511 42.536 249.127 42.6853 248.914 42.984C248.786 43.1973 248.871 44.4773 249.17 46.824C249.383 48.3173 249.597 49.832 249.81 51.368C249.853 51.9653 250.706 53.288 252.37 55.336C254.034 57.3413 254.887 59.0693 254.93 60.52C254.973 64.232 250.834 66.088 242.514 66.088C239.869 66.088 237.629 65.6187 235.794 64.68C233.447 63.4853 232.274 61.6933 232.274 59.304C232.274 58.4933 232.765 57.256 233.746 55.592C234.898 53.7147 235.581 52.4133 235.794 51.688C236.306 49.9387 236.861 47.1013 237.458 43.176C237.33 42.9627 237.074 42.856 236.69 42.856C236.477 42.856 236.093 42.8987 235.538 42.984C235.026 43.0693 234.642 43.112 234.386 43.112C233.661 43.112 233.17 42.8773 232.914 42.408C232.658 41.896 232.551 41.064 232.594 39.912C232.637 38.6747 232.871 37.8213 233.298 37.352C233.426 37.1813 234.087 37.096 235.282 37.096C236.861 37.096 237.65 36.776 237.65 36.136C237.607 35.4533 237.095 34.0453 236.114 31.912C235.175 29.736 234.706 28.136 234.706 27.112C234.706 23.9547 235.709 21.416 237.714 19.496C239.762 17.5333 242.343 16.552 245.458 16.552C248.103 16.552 250.365 17.32 252.242 18.856C254.162 20.392 255.122 22.4187 255.122 24.936ZM273.98 20.904C273.98 22.7387 272.977 24.3173 270.972 25.64C269.222 26.8347 267.388 27.432 265.468 27.432C263.804 27.432 262.396 27.048 261.244 26.28C259.921 25.3413 259.26 24.0827 259.26 22.504C259.26 20.84 260.305 19.3893 262.396 18.152C264.188 17.0427 266.001 16.488 267.836 16.488C269.372 16.488 270.716 16.8507 271.868 17.576C273.276 18.3867 273.98 19.496 273.98 20.904ZM257.916 36.072C257.916 34.024 259.601 32.2107 262.972 30.632C265.958 29.224 268.689 28.52 271.164 28.52C271.974 28.52 272.742 29.0107 273.468 29.992C274.236 30.9307 274.534 31.784 274.364 32.552C274.364 33.7467 274.108 35.5173 273.596 37.864C273.126 40.2107 272.892 42.0027 272.892 43.24C272.892 45.8427 273.702 49.2987 275.324 53.608C276.945 57.9173 277.756 60.1147 277.756 60.2C277.756 62.2907 276.476 63.912 273.916 65.064C271.91 65.9173 269.713 66.344 267.324 66.344C264.806 66.344 262.609 65.9173 260.732 65.064C258.3 63.9547 257.084 62.2907 257.084 60.072C257.084 59.7733 257.809 57.96 259.26 54.632C260.753 51.2613 261.564 48.04 261.692 44.968C261.734 43.56 261.585 42.1733 261.244 40.808C261.03 40.296 260.71 39.6987 260.284 39.016C259.729 38.7173 259.196 38.3973 258.684 38.056C258.172 37.7147 257.916 37.0533 257.916 36.072ZM298.91 51.24C299.593 51.112 300.531 50.728 301.726 50.088C302.793 49.4907 303.646 49.192 304.286 49.192C305.481 49.192 306.505 49.5973 307.358 50.408C308.254 51.176 308.702 52.1573 308.702 53.352C308.702 56.9787 307.358 59.9867 304.67 62.376C302.025 64.7227 298.867 65.896 295.198 65.896C290.505 65.896 286.793 64.0613 284.062 60.392C281.587 57.1067 280.35 53.0533 280.35 48.232C280.35 43.2827 281.715 38.888 284.446 35.048C287.518 30.824 291.443 28.712 296.222 28.712C299.678 28.712 302.515 29.6507 304.734 31.528C307.123 33.5333 308.318 36.2213 308.318 39.592C308.318 41 307.55 42.0667 306.014 42.792C304.649 43.432 302.921 43.752 300.83 43.752C298.398 43.752 296.371 43.368 294.75 42.6C294.281 42.3867 293.875 42.28 293.534 42.28C292.937 42.28 292.489 42.5787 292.19 43.176C292.062 43.6453 291.998 44.136 291.998 44.648C291.998 46.056 292.574 47.464 293.726 48.872C294.921 50.28 296.222 51.0693 297.63 51.24H298.91ZM295.838 34.216C294.771 34.216 293.79 34.536 292.894 35.176C292.041 35.7733 291.614 36.584 291.614 37.608C291.614 38.4187 292.403 38.824 293.982 38.824C296.755 38.824 298.227 38.76 298.398 38.632C298.91 38.5893 299.166 38.184 299.166 37.416C299.166 36.4773 298.825 35.7093 298.142 35.112C297.502 34.5147 296.734 34.216 295.838 34.216ZM312.892 38.44C311.783 37.5013 311.228 36.648 311.228 35.88C311.228 33.832 312.785 32.0827 315.9 30.632C318.503 29.4373 320.977 28.84 323.324 28.84C324.263 28.84 324.796 29.1387 324.924 29.736C324.924 29.608 324.924 30.2693 324.924 31.72L324.988 32.488C324.988 32.7013 325.073 32.872 325.244 33C325.415 33.128 325.564 33.1707 325.692 33.128C326.161 32.9573 327.143 32.0827 328.636 30.504C329.873 29.2667 331.409 28.648 333.244 28.648C335.207 28.648 336.743 29.608 337.852 31.528C338.791 33.1493 339.26 34.984 339.26 37.032C339.26 38.7813 338.663 40.296 337.468 41.576C336.273 42.856 334.801 43.496 333.052 43.496C331.772 43.496 330.812 43.112 330.172 42.344C329.788 41.832 329.383 40.8507 328.956 39.4C328.743 39.016 328.423 38.8027 327.996 38.76C327.228 38.76 326.631 39.72 326.204 41.64C325.948 42.92 325.82 44.2427 325.82 45.608C325.82 48.04 326.353 50.344 327.42 52.52C327.889 53.5013 328.849 55.0587 330.3 57.192C331.367 58.6853 331.9 59.8373 331.9 60.648C331.9 64.0613 328.252 65.768 320.956 65.768C313.916 65.768 310.396 63.848 310.396 60.008C310.396 60.2213 311.164 58.28 312.7 54.184C314.236 50.0453 315.004 46.9307 315.004 44.84C315.004 42.5787 314.961 41.2347 314.876 40.808C314.663 40.1253 314.001 39.336 312.892 38.44Z" fill="#1E1E1E"/>
</svg>
