<?xml version="1.0" encoding="utf-8"?>
<!-- Generator: Adobe Illustrator 27.0.0, SVG Export Plug-In . SVG Version: 6.00 Build 0)  -->
<svg version="1.1" id="Capa_1" xmlns="http://www.w3.org/2000/svg" xmlns:xlink="http://www.w3.org/1999/xlink" x="0px" y="0px"
	 viewBox="0 0 800 800" style="enable-background:new 0 0 800 800;" xml:space="preserve">
<style type="text/css">
	.st0{fill:#7F7F7F;}
</style>
<g>
	<path class="st0" d="M401.7,562.6c3.6-1.6,6.8-3.9,9.5-6.8L775.2,159c35.3-38.4,32.5-98.3-6.1-133.4l-1-0.9
		C750.7,8.8,728,0,704.2,0c-26.6,0-52.1,11.2-70,30.7L270.1,427.6c-2.7,2.9-4.7,6.3-5.9,10l-42.8,127.8c-4.2,12.6-2.1,26.6,5.7,37.4
		c7.9,10.9,20.5,17.3,33.8,17.3c5.8,0,11.4-1.2,16.8-3.5L401.7,562.6z M675.7,68.5c7.4-8.1,17.5-12.5,28.5-12.5
		c9.7,0,18.9,3.6,26,10.1l1,0.9c15.7,14.3,16.8,38.7,2.5,54.3h0L419.5,463.8l-58-52.8L675.7,68.5z M315.6,460.9l7.9-8.6l58,52.8
		l-7.9,8.6L285,552.3L315.6,460.9z"/>
	<path class="st0" d="M731.4,350.9c0-7.5-2.9-14.5-8.2-19.8c-5.3-5.3-12.4-8.2-19.9-8.2c-15.5,0-28.1,12.5-28.1,28V648
		c0,53-43.3,96-96.5,96H152.7c-53.2,0-96.5-43.1-96.5-96V227.3c0-53,43.3-96,96.5-96h308.4c15.5,0,28.1-12.5,28.1-28
		s-12.6-28-28.1-28H152.7C68.5,75.3,0,143.5,0,227.3V648c0,83.8,68.5,152,152.7,152h426.1c84.2,0,152.7-68.2,152.7-152V350.9z"/>
</g>
</svg>
