<svg width="297" height="79" viewBox="0 0 297 79" fill="none" xmlns="http://www.w3.org/2000/svg">
<rect x="18" y="54" width="279" height="22" rx="11" fill="#7D6479" fill-opacity="0.7"/>
<path d="M10.688 48.104C13.632 48.104 15.104 46.696 15.104 43.88C15.104 42.9413 14.1227 41.64 12.16 39.976C9.216 37.416 7.44533 35.7947 6.848 35.112C4.88533 32.936 3.904 30.76 3.904 28.584C3.904 24.7013 5.46133 21.6293 8.576 19.368C11.3493 17.3627 14.7413 16.36 18.752 16.36C20.032 16.36 21.8667 16.5947 24.256 17.064C26.688 17.5333 28.5653 17.768 29.888 17.768C32.192 17.768 33.344 20.4133 33.344 25.704C33.344 28.7333 32.1493 30.248 29.76 30.248C28.096 30.248 26.496 29.032 24.96 26.6C23.4667 24.168 22.016 22.952 20.608 22.952C17.4933 22.952 15.936 24.0827 15.936 26.344C15.936 27.6667 17.6853 29.16 21.184 30.824C25.92 33.0427 29.1413 34.8987 30.848 36.392C34.3467 39.4213 36.096 43.304 36.096 48.04C36.096 53.2027 34.4107 57.448 31.04 60.776C27.712 64.104 23.488 65.768 18.368 65.768C13.12 65.768 8.85333 64.488 5.568 61.928C1.94133 59.1547 0.128 55.208 0.128 50.088C0.128 47.528 1.45067 46.248 4.096 46.248C4.94933 46.248 5.824 46.568 6.72 47.208C7.65867 47.8053 8.98133 48.104 10.688 48.104ZM52.7485 22.888C52.7485 26.1733 51.6605 29.9067 49.4845 34.088C47.0525 38.9093 44.3858 41.32 41.4845 41.32C40.0338 41.32 39.3085 40.7013 39.3085 39.464C39.3085 39.1227 39.9272 38.12 41.1645 36.456C42.4018 34.792 43.0205 33.32 43.0205 32.04C43.0205 31.4853 42.2525 30.2053 40.7165 28.2C39.1805 26.152 38.4125 24.3387 38.4125 22.76C38.4125 20.712 39.1165 18.7493 40.5245 16.872C42.0605 14.824 43.8312 13.8 45.8365 13.8C48.0978 13.8 49.8685 14.8027 51.1485 16.808C52.2152 18.5147 52.7485 20.5413 52.7485 22.888ZM71.292 20.904C71.292 22.7387 70.2893 24.3173 68.284 25.64C66.5347 26.8347 64.7 27.432 62.78 27.432C61.116 27.432 59.708 27.048 58.556 26.28C57.2333 25.3413 56.572 24.0827 56.572 22.504C56.572 20.84 57.6173 19.3893 59.708 18.152C61.5 17.0427 63.3133 16.488 65.148 16.488C66.684 16.488 68.028 16.8507 69.18 17.576C70.588 18.3867 71.292 19.496 71.292 20.904ZM55.228 36.072C55.228 34.024 56.9133 32.2107 60.284 30.632C63.2707 29.224 66.0013 28.52 68.476 28.52C69.2867 28.52 70.0547 29.0107 70.78 29.992C71.548 30.9307 71.8467 31.784 71.676 32.552C71.676 33.7467 71.42 35.5173 70.908 37.864C70.4387 40.2107 70.204 42.0027 70.204 43.24C70.204 45.8427 71.0147 49.2987 72.636 53.608C74.2573 57.9173 75.068 60.1147 75.068 60.2C75.068 62.2907 73.788 63.912 71.228 65.064C69.2227 65.9173 67.0253 66.344 64.636 66.344C62.1187 66.344 59.9213 65.9173 58.044 65.064C55.612 63.9547 54.396 62.2907 54.396 60.072C54.396 59.7733 55.1213 57.96 56.572 54.632C58.0653 51.2613 58.876 48.04 59.004 44.968C59.0467 43.56 58.8973 42.1733 58.556 40.808C58.3427 40.296 58.0227 39.6987 57.596 39.016C57.0413 38.7173 56.508 38.3973 55.996 38.056C55.484 37.7147 55.228 37.0533 55.228 36.072ZM80.0945 38.824C79.2412 38.3973 78.7292 38.0987 78.5585 37.928C78.0465 37.4587 77.7905 36.776 77.7905 35.88C77.7905 34.216 79.0278 32.6587 81.5025 31.208C84.1905 29.6293 86.5798 28.84 88.6705 28.84C89.8652 28.84 90.4198 29.5653 90.3345 31.016C90.3345 31.2293 90.3558 31.5493 90.3985 31.976C90.5265 32.6587 90.7612 33 91.1025 33C91.2305 33 91.3798 32.936 91.5505 32.808C92.7878 31.784 94.0465 30.76 95.3265 29.736C96.5638 28.8827 98.2065 28.456 100.255 28.456C103.369 28.456 105.588 28.9253 106.911 29.864C108.02 30.632 108.681 31.976 108.895 33.896C108.937 34.28 108.958 36.4347 108.958 40.36C108.958 43.2187 109.812 47.2507 111.519 52.456C113.225 57.6613 114.079 60.712 114.079 61.608C114.079 64.2533 110.815 65.576 104.287 65.576C102.281 65.576 100.575 65.128 99.1665 64.232C97.4598 63.2507 96.6065 61.8 96.6065 59.88C96.6065 59.4107 96.7985 58.7067 97.1825 57.768C97.6092 56.8293 97.8438 56.104 97.8865 55.592C98.5265 48.296 98.8465 44.4987 98.8465 44.2C98.8465 39.336 97.7798 36.904 95.6465 36.904C94.1958 36.904 93.2785 37.9067 92.8945 39.912C92.7665 40.6373 92.7025 42.2373 92.7025 44.712C92.7025 46.248 92.9585 48.424 93.4705 51.24C94.0252 54.0133 94.3025 55.9547 94.3025 57.064C94.3025 59.9653 93.4278 62.1627 91.6785 63.656C89.9718 65.1067 87.6892 65.832 84.8305 65.832C82.5265 65.832 80.8625 65.576 79.8385 65.064C78.3025 64.3387 77.5345 62.9733 77.5345 60.968C77.5345 60.1147 78.1318 57.896 79.3265 54.312C80.6492 50.344 81.4598 47.3147 81.7585 45.224C81.7158 43.176 81.5238 41.5973 81.1825 40.488C80.8838 40.1893 80.5212 39.6347 80.0945 38.824ZM118.321 37.288C118.321 34.472 119.387 32.2533 121.521 30.632C123.441 29.096 125.851 28.328 128.753 28.328C132.379 28.328 135.345 29.5653 137.649 32.04C139.526 33.96 140.465 35.624 140.465 37.032C140.465 38.696 139.249 39.528 136.817 39.528C135.622 39.528 134.513 38.6747 133.489 36.968C132.465 35.2613 131.569 34.408 130.801 34.408C130.289 34.408 129.798 34.6 129.329 34.984C128.902 35.3253 128.689 35.752 128.689 36.264C128.689 37.416 129.841 38.6747 132.145 40.04C135.345 41.9173 137.499 43.4533 138.609 44.648C140.955 47.1653 142.129 50.3653 142.129 54.248C142.129 57.448 140.806 60.1573 138.161 62.376C135.686 64.4667 132.849 65.512 129.649 65.512C120.945 65.512 116.593 61.4587 116.593 53.352C116.593 51.432 117.275 50.472 118.641 50.472C119.025 50.472 119.537 50.6213 120.177 50.92C120.859 51.176 121.393 51.304 121.777 51.304C123.398 51.304 124.209 50.4933 124.209 48.872C124.209 47.7627 123.227 46.0987 121.265 43.88C119.302 41.6187 118.321 39.4213 118.321 37.288ZM162.443 51.24C163.424 51.24 164.533 50.8987 165.771 50.216C167.051 49.5333 168.011 49.192 168.651 49.192C169.845 49.192 170.869 49.5973 171.723 50.408C172.619 51.176 173.067 52.1573 173.067 53.352C173.067 56.9787 171.723 59.9867 169.035 62.376C166.389 64.7227 163.232 65.896 159.562 65.896C154.997 65.896 151.328 64.1253 148.555 60.584C146.037 57.3413 144.779 53.3733 144.779 48.68C144.779 43.3893 146.165 38.8667 148.939 35.112C152.011 30.9733 156.107 28.904 161.227 28.904C163.957 28.904 166.325 29.5867 168.331 30.952C170.592 32.488 171.723 34.5573 171.723 37.16C171.723 38.3547 171.467 39.3573 170.955 40.168C170.315 41.1493 169.44 41.64 168.331 41.64C167.392 41.64 166.283 41.0427 165.003 39.848C163.723 38.6107 162.592 37.992 161.611 37.992C160.117 37.992 158.859 38.7173 157.835 40.168C156.853 41.576 156.363 43.0693 156.363 44.648C156.363 46.1413 157.003 47.6133 158.283 49.064C159.563 50.5147 160.949 51.24 162.443 51.24ZM177.205 38.44C176.095 37.5013 175.541 36.648 175.541 35.88C175.541 33.832 177.098 32.0827 180.213 30.632C182.815 29.4373 185.29 28.84 187.637 28.84C188.575 28.84 189.109 29.1387 189.237 29.736C189.237 29.608 189.237 30.2693 189.237 31.72L189.301 32.488C189.301 32.7013 189.386 32.872 189.557 33C189.727 33.128 189.877 33.1707 190.005 33.128C190.474 32.9573 191.455 32.0827 192.949 30.504C194.186 29.2667 195.722 28.648 197.557 28.648C199.519 28.648 201.055 29.608 202.165 31.528C203.103 33.1493 203.573 34.984 203.573 37.032C203.573 38.7813 202.975 40.296 201.781 41.576C200.586 42.856 199.114 43.496 197.365 43.496C196.085 43.496 195.125 43.112 194.485 42.344C194.101 41.832 193.695 40.8507 193.269 39.4C193.055 39.016 192.735 38.8027 192.309 38.76C191.541 38.76 190.943 39.72 190.517 41.64C190.261 42.92 190.133 44.2427 190.133 45.608C190.133 48.04 190.666 50.344 191.733 52.52C192.202 53.5013 193.162 55.0587 194.613 57.192C195.679 58.6853 196.213 59.8373 196.213 60.648C196.213 64.0613 192.565 65.768 185.269 65.768C178.229 65.768 174.709 63.848 174.709 60.008C174.709 60.2213 175.477 58.28 177.013 54.184C178.549 50.0453 179.317 46.9307 179.317 44.84C179.317 42.5787 179.274 41.2347 179.189 40.808C178.975 40.1253 178.314 39.336 177.205 38.44ZM221.48 20.904C221.48 22.7387 220.477 24.3173 218.472 25.64C216.722 26.8347 214.888 27.432 212.968 27.432C211.304 27.432 209.896 27.048 208.744 26.28C207.421 25.3413 206.76 24.0827 206.76 22.504C206.76 20.84 207.805 19.3893 209.896 18.152C211.688 17.0427 213.501 16.488 215.336 16.488C216.872 16.488 218.216 16.8507 219.368 17.576C220.776 18.3867 221.48 19.496 221.48 20.904ZM205.416 36.072C205.416 34.024 207.101 32.2107 210.472 30.632C213.458 29.224 216.189 28.52 218.664 28.52C219.474 28.52 220.242 29.0107 220.968 29.992C221.736 30.9307 222.034 31.784 221.864 32.552C221.864 33.7467 221.608 35.5173 221.096 37.864C220.626 40.2107 220.392 42.0027 220.392 43.24C220.392 45.8427 221.202 49.2987 222.824 53.608C224.445 57.9173 225.256 60.1147 225.256 60.2C225.256 62.2907 223.976 63.912 221.416 65.064C219.41 65.9173 217.213 66.344 214.824 66.344C212.306 66.344 210.109 65.9173 208.232 65.064C205.8 63.9547 204.584 62.2907 204.584 60.072C204.584 59.7733 205.309 57.96 206.76 54.632C208.253 51.2613 209.064 48.04 209.192 44.968C209.234 43.56 209.085 42.1733 208.744 40.808C208.53 40.296 208.21 39.6987 207.784 39.016C207.229 38.7173 206.696 38.3973 206.184 38.056C205.672 37.7147 205.416 37.0533 205.416 36.072ZM229.642 38.44C228.533 37.5013 227.978 36.648 227.978 35.88C227.978 33.832 229.535 32.0827 232.65 30.632C235.253 29.4373 237.727 28.84 240.074 28.84C241.013 28.84 241.546 29.1387 241.674 29.736C241.674 29.608 241.674 30.2693 241.674 31.72L241.738 32.488C241.738 32.7013 241.823 32.872 241.994 33C242.165 33.128 242.314 33.1707 242.442 33.128C242.911 32.9573 243.893 32.0827 245.386 30.504C246.623 29.2667 248.159 28.648 249.994 28.648C251.957 28.648 253.493 29.608 254.602 31.528C255.541 33.1493 256.01 34.984 256.01 37.032C256.01 38.7813 255.413 40.296 254.218 41.576C253.023 42.856 251.551 43.496 249.802 43.496C248.522 43.496 247.562 43.112 246.922 42.344C246.538 41.832 246.133 40.8507 245.706 39.4C245.493 39.016 245.173 38.8027 244.746 38.76C243.978 38.76 243.381 39.72 242.954 41.64C242.698 42.92 242.57 44.2427 242.57 45.608C242.57 48.04 243.103 50.344 244.17 52.52C244.639 53.5013 245.599 55.0587 247.05 57.192C248.117 58.6853 248.65 59.8373 248.65 60.648C248.65 64.0613 245.002 65.768 237.706 65.768C230.666 65.768 227.146 63.848 227.146 60.008C227.146 60.2213 227.914 58.28 229.45 54.184C230.986 50.0453 231.754 46.9307 231.754 44.84C231.754 42.5787 231.711 41.2347 231.626 40.808C231.413 40.1253 230.751 39.336 229.642 38.44ZM276.285 51.24C276.968 51.112 277.906 50.728 279.101 50.088C280.168 49.4907 281.021 49.192 281.661 49.192C282.856 49.192 283.88 49.5973 284.733 50.408C285.629 51.176 286.077 52.1573 286.077 53.352C286.077 56.9787 284.733 59.9867 282.045 62.376C279.4 64.7227 276.242 65.896 272.573 65.896C267.88 65.896 264.168 64.0613 261.437 60.392C258.962 57.1067 257.725 53.0533 257.725 48.232C257.725 43.2827 259.09 38.888 261.821 35.048C264.893 30.824 268.818 28.712 273.597 28.712C277.053 28.712 279.89 29.6507 282.109 31.528C284.498 33.5333 285.693 36.2213 285.693 39.592C285.693 41 284.925 42.0667 283.389 42.792C282.024 43.432 280.296 43.752 278.205 43.752C275.773 43.752 273.746 43.368 272.125 42.6C271.656 42.3867 271.25 42.28 270.909 42.28C270.312 42.28 269.864 42.5787 269.565 43.176C269.437 43.6453 269.373 44.136 269.373 44.648C269.373 46.056 269.949 47.464 271.101 48.872C272.296 50.28 273.597 51.0693 275.005 51.24H276.285ZM273.213 34.216C272.146 34.216 271.165 34.536 270.269 35.176C269.416 35.7733 268.989 36.584 268.989 37.608C268.989 38.4187 269.778 38.824 271.357 38.824C274.13 38.824 275.602 38.76 275.773 38.632C276.285 38.5893 276.541 38.184 276.541 37.416C276.541 36.4773 276.2 35.7093 275.517 35.112C274.877 34.5147 274.109 34.216 273.213 34.216Z" fill="black"/>
</svg>
