<svg width="129" height="39" viewBox="0 0 129 39" fill="none" xmlns="http://www.w3.org/2000/svg">
<path d="M19.2 31.384C19.2 33.336 18.208 34.92 16.224 36.136C14.56 37.16 12.688 37.672 10.608 37.672C5.328 37.672 2.688 35.176 2.688 30.184C2.688 28.808 2.976 26.744 3.552 23.992C4.128 21.24 4.416 19.144 4.416 17.704C4.416 16.328 4.064 15.496 3.36 15.208C2.688 15.144 2.032 15.08 1.392 15.016C0.656 14.856 0.272 14.264 0.24 13.24C0.176 12.088 0.384 11.304 0.864 10.888C1.184 10.6 1.744 10.456 2.544 10.456C2.64 10.456 2.784 10.472 2.976 10.504C3.168 10.504 3.312 10.504 3.408 10.504C4.368 10.504 5.024 10.264 5.376 9.784C5.92 9.08 6.4 8.056 6.816 6.712C7.232 5.368 7.584 4.504 7.872 4.12C8.416 3.384 9.28 3.016 10.464 3.016C12.544 3.016 13.584 3.976 13.584 5.896C13.584 6.088 13.568 6.392 13.536 6.808C13.536 7.224 13.536 7.528 13.536 7.72C13.536 8.712 13.712 9.448 14.064 9.928C14.64 10.696 15.376 11.08 16.272 11.08C16.432 11.08 16.672 11.064 16.992 11.032C17.312 11 17.536 10.984 17.664 10.984C18.4 10.984 18.768 11.672 18.768 13.048C18.768 14.296 18.144 14.92 16.896 14.92C16.736 14.92 16.496 14.92 16.176 14.92C15.856 14.888 15.616 14.872 15.456 14.872C13.728 14.872 12.864 15.944 12.864 18.088C12.864 19.464 13.184 21.368 13.824 23.8C14.56 26.648 15.36 28.28 16.224 28.696C16.896 28.92 17.552 29.16 18.192 29.416C18.864 29.672 19.2 30.328 19.2 31.384ZM32.7971 3.928C32.7971 5.304 32.0451 6.488 30.5411 7.48C29.2291 8.376 27.8531 8.824 26.4131 8.824C25.1651 8.824 24.1091 8.536 23.2451 7.96C22.2531 7.256 21.7571 6.312 21.7571 5.128C21.7571 3.88 22.5411 2.792 24.1091 1.864C25.4531 1.032 26.8131 0.615999 28.1891 0.615999C29.3411 0.615999 30.3491 0.887999 31.2131 1.432C32.2691 2.04 32.7971 2.872 32.7971 3.928ZM20.7491 15.304C20.7491 13.768 22.0131 12.408 24.5411 11.224C26.7811 10.168 28.8291 9.64 30.6851 9.64C31.2931 9.64 31.8691 10.008 32.4131 10.744C32.9891 11.448 33.2131 12.088 33.0851 12.664C33.0851 13.56 32.8931 14.888 32.5091 16.648C32.1571 18.408 31.9811 19.752 31.9811 20.68C31.9811 22.632 32.5891 25.224 33.8051 28.456C35.0211 31.688 35.6291 33.336 35.6291 33.4C35.6291 34.968 34.6691 36.184 32.7491 37.048C31.2451 37.688 29.5971 38.008 27.8051 38.008C25.9171 38.008 24.2691 37.688 22.8611 37.048C21.0371 36.216 20.1251 34.968 20.1251 33.304C20.1251 33.08 20.6691 31.72 21.7571 29.224C22.8771 26.696 23.4851 24.28 23.5811 21.976C23.6131 20.92 23.5011 19.88 23.2451 18.856C23.0851 18.472 22.8451 18.024 22.5251 17.512C22.1091 17.288 21.7091 17.048 21.3251 16.792C20.9411 16.536 20.7491 16.04 20.7491 15.304ZM38.871 8.872C38.135 8.456 37.735 8.216 37.671 8.152C37.319 7.864 37.143 7.384 37.143 6.712C37.143 5.432 38.087 4.248 39.975 3.16C42.375 1.752 44.759 1.048 47.127 1.048C48.087 1.048 48.487 1.672 48.327 2.92L47.127 11.848C47.159 12.104 47.175 12.392 47.175 12.712C47.175 13.384 47.383 14.28 47.799 15.4C48.279 16.616 48.775 17.288 49.287 17.416C49.831 17.576 50.471 17.224 51.207 16.36C51.847 15.624 52.279 14.888 52.503 14.152C52.375 13.736 52.311 13.304 52.311 12.856C52.279 11.352 52.903 10.36 54.183 9.88C54.887 9.624 55.943 9.512 57.351 9.544C58.631 9.608 59.831 9.816 60.951 10.168C62.551 10.68 63.351 11.4 63.351 12.328C63.351 13.096 62.407 14.088 60.519 15.304C58.215 16.776 56.871 17.752 56.487 18.232C56.423 19.16 57.223 20.6 58.887 22.552C60.455 24.344 62.023 26.136 63.591 27.928C65.319 30.072 66.183 31.752 66.183 32.968C66.183 34.92 65.207 36.184 63.255 36.76C62.743 36.92 60.999 37.112 58.023 37.336C55.943 37.464 54.375 36.632 53.319 34.84C52.743 33.816 52.135 31.864 51.495 28.984C50.887 26.296 50.263 24.504 49.623 23.608L49.383 23.464C49.159 23.816 49.047 24.168 49.047 24.52C49.047 25.032 49.063 25.544 49.095 26.056C49.159 26.568 49.191 26.92 49.191 27.112C49.191 27.528 49.207 28.216 49.239 29.176C49.271 30.104 49.287 30.824 49.287 31.336C49.287 34.088 48.743 35.976 47.655 37C47.367 37.256 46.503 37.496 45.063 37.72C43.879 37.912 42.967 38.008 42.327 38.008C40.919 38.008 39.671 37.672 38.583 37C37.655 36.424 37.191 35.624 37.191 34.6C37.191 34.056 37.351 33.32 37.671 32.392C37.927 31.624 38.183 30.84 38.439 30.04C39.143 27.736 39.591 25.064 39.783 22.024C39.783 21.928 39.863 19.208 40.023 13.864H39.975C39.975 10.92 39.607 9.256 38.871 8.872ZM81.4481 26.68C81.9601 26.584 82.6641 26.296 83.5601 25.816C84.3601 25.368 85.0001 25.144 85.4801 25.144C86.3761 25.144 87.1441 25.448 87.7841 26.056C88.4561 26.632 88.7921 27.368 88.7921 28.264C88.7921 30.984 87.7841 33.24 85.7681 35.032C83.7841 36.792 81.4161 37.672 78.6641 37.672C75.1441 37.672 72.3601 36.296 70.3121 33.544C68.4561 31.08 67.5281 28.04 67.5281 24.424C67.5281 20.712 68.5521 17.416 70.6001 14.536C72.9041 11.368 75.8481 9.784 79.4321 9.784C82.0241 9.784 84.1521 10.488 85.8161 11.896C87.6081 13.4 88.5041 15.416 88.5041 17.944C88.5041 19 87.9281 19.8 86.7761 20.344C85.7521 20.824 84.4561 21.064 82.8881 21.064C81.0641 21.064 79.5441 20.776 78.3281 20.2C77.9761 20.04 77.6721 19.96 77.4161 19.96C76.9681 19.96 76.6321 20.184 76.4081 20.632C76.3121 20.984 76.2641 21.352 76.2641 21.736C76.2641 22.792 76.6961 23.848 77.5601 24.904C78.4561 25.96 79.4321 26.552 80.4881 26.68H81.4481ZM79.1441 13.912C78.3441 13.912 77.6081 14.152 76.9361 14.632C76.2961 15.08 75.9761 15.688 75.9761 16.456C75.9761 17.064 76.5681 17.368 77.7521 17.368C79.8321 17.368 80.9361 17.32 81.0641 17.224C81.4481 17.192 81.6401 16.888 81.6401 16.312C81.6401 15.608 81.3841 15.032 80.8721 14.584C80.3921 14.136 79.8161 13.912 79.1441 13.912ZM108.591 31.384C108.591 33.336 107.599 34.92 105.615 36.136C103.951 37.16 102.079 37.672 99.9986 37.672C94.7186 37.672 92.0786 35.176 92.0786 30.184C92.0786 28.808 92.3666 26.744 92.9426 23.992C93.5186 21.24 93.8066 19.144 93.8066 17.704C93.8066 16.328 93.4546 15.496 92.7506 15.208C92.0786 15.144 91.4226 15.08 90.7826 15.016C90.0466 14.856 89.6626 14.264 89.6306 13.24C89.5666 12.088 89.7746 11.304 90.2546 10.888C90.5746 10.6 91.1346 10.456 91.9346 10.456C92.0306 10.456 92.1746 10.472 92.3666 10.504C92.5586 10.504 92.7026 10.504 92.7986 10.504C93.7586 10.504 94.4146 10.264 94.7666 9.784C95.3106 9.08 95.7906 8.056 96.2066 6.712C96.6226 5.368 96.9746 4.504 97.2626 4.12C97.8066 3.384 98.6706 3.016 99.8546 3.016C101.935 3.016 102.975 3.976 102.975 5.896C102.975 6.088 102.959 6.392 102.927 6.808C102.927 7.224 102.927 7.528 102.927 7.72C102.927 8.712 103.103 9.448 103.455 9.928C104.031 10.696 104.767 11.08 105.663 11.08C105.823 11.08 106.063 11.064 106.383 11.032C106.703 11 106.927 10.984 107.055 10.984C107.791 10.984 108.159 11.672 108.159 13.048C108.159 14.296 107.535 14.92 106.287 14.92C106.127 14.92 105.887 14.92 105.567 14.92C105.247 14.888 105.007 14.872 104.847 14.872C103.119 14.872 102.255 15.944 102.255 18.088C102.255 19.464 102.575 21.368 103.215 23.8C103.951 26.648 104.751 28.28 105.615 28.696C106.287 28.92 106.943 29.16 107.583 29.416C108.255 29.672 108.591 30.328 108.591 31.384ZM128.044 31.384C128.044 33.336 127.052 34.92 125.068 36.136C123.404 37.16 121.532 37.672 119.452 37.672C114.172 37.672 111.532 35.176 111.532 30.184C111.532 28.808 111.82 26.744 112.396 23.992C112.972 21.24 113.26 19.144 113.26 17.704C113.26 16.328 112.908 15.496 112.204 15.208C111.532 15.144 110.876 15.08 110.236 15.016C109.5 14.856 109.116 14.264 109.084 13.24C109.02 12.088 109.228 11.304 109.708 10.888C110.028 10.6 110.588 10.456 111.388 10.456C111.484 10.456 111.628 10.472 111.82 10.504C112.012 10.504 112.156 10.504 112.252 10.504C113.212 10.504 113.868 10.264 114.22 9.784C114.764 9.08 115.244 8.056 115.66 6.712C116.076 5.368 116.428 4.504 116.716 4.12C117.26 3.384 118.124 3.016 119.308 3.016C121.388 3.016 122.428 3.976 122.428 5.896C122.428 6.088 122.412 6.392 122.38 6.808C122.38 7.224 122.38 7.528 122.38 7.72C122.38 8.712 122.556 9.448 122.908 9.928C123.484 10.696 124.22 11.08 125.116 11.08C125.276 11.08 125.516 11.064 125.836 11.032C126.156 11 126.38 10.984 126.508 10.984C127.244 10.984 127.612 11.672 127.612 13.048C127.612 14.296 126.988 14.92 125.74 14.92C125.58 14.92 125.34 14.92 125.02 14.92C124.7 14.888 124.46 14.872 124.3 14.872C122.572 14.872 121.708 15.944 121.708 18.088C121.708 19.464 122.028 21.368 122.668 23.8C123.404 26.648 124.204 28.28 125.068 28.696C125.74 28.92 126.396 29.16 127.036 29.416C127.708 29.672 128.044 30.328 128.044 31.384Z" fill="#443742"/>
</svg>
