<svg width="362" height="158" viewBox="0 0 362 158" fill="none" xmlns="http://www.w3.org/2000/svg">
<rect x="15" y="131" width="351" height="22" rx="11" fill="#7D6479" fill-opacity="0.7"/>
<path d="M3.904 23.912C3.392 22.4613 3.136 21.736 3.136 21.736C3.136 19.9013 4.33067 18.5573 6.72 17.704C8.384 17.1067 10.3893 16.808 12.736 16.808C16.7467 16.808 19.3707 17.064 20.608 17.576C21.7173 18.0027 22.464 18.984 22.848 20.52C23.744 23.848 24.3627 25.896 24.704 26.664C25.216 28.1573 25.7493 29.6507 26.304 31.144C27.2 33.32 28.0533 34.408 28.864 34.408C30.016 34.408 30.848 32.552 31.36 28.84C31.6587 26.4933 31.9573 24.1253 32.256 21.736C32.896 19.56 34.2187 18.1307 36.224 17.448C37.376 17.064 39.424 16.8507 42.368 16.808C49.024 16.808 52.352 18.3013 52.352 21.288C52.352 22.056 51.7333 23.1227 50.496 24.488C49.3013 25.8533 48.704 27.3253 48.704 28.904C48.704 32.36 49.1733 36.8827 50.112 42.472C51.008 46.952 51.8827 51.432 52.736 55.912C52.864 56.7227 53.504 57.5973 54.656 58.536C55.808 59.432 56.384 60.3493 56.384 61.288C56.384 63.2507 54.7413 64.5307 51.456 65.128C50.0053 65.4267 47.6587 65.576 44.416 65.576C41.216 65.576 38.8907 65.4267 37.44 65.128C34.24 64.5307 32.64 63.272 32.64 61.352C32.64 60.7547 32.832 60.2427 33.216 59.816C33.6427 59.3893 34.048 58.984 34.432 58.6C34.816 58.1733 35.1573 56.7227 35.456 54.248C35.712 52.072 35.84 50.4293 35.84 49.32C35.84 47.1013 35.84 45.928 35.84 45.8C35.6267 44.3067 35.008 43.56 33.984 43.56C33.472 43.6027 33.024 44.3493 32.64 45.8C31.9147 48.2747 31.5093 49.64 31.424 49.896C30.784 51.3893 29.9733 52.136 28.992 52.136C27.8827 52.136 27.008 51.4107 26.368 49.96C26.1547 49.5333 25.7493 48.168 25.152 45.864C24.7253 44.4133 24.2773 43.688 23.808 43.688C22.7413 43.688 22.1653 46.2693 22.08 51.432C22.464 52.8827 22.8053 53.8213 23.104 54.248C23.6587 54.8453 24.2347 55.4853 24.832 56.168C25.472 56.8507 25.792 57.5333 25.792 58.216C25.792 60.136 25.5787 61.5867 25.152 62.568C24.8107 63.9333 23.5093 64.8293 21.248 65.256C20.3947 65.4267 19.3067 65.5333 17.984 65.576C16.704 65.6187 14.7627 65.64 12.16 65.64C7.38133 65.64 4.20267 65.1707 2.624 64.232C1.04533 63.2507 0.256 61.3947 0.256 58.664C0.256 58.024 0.661333 57.32 1.472 56.552C2.45333 55.6133 3.008 54.9947 3.136 54.696C3.94667 53.0747 4.864 49.1493 5.888 42.92C6.82667 37.032 7.296 32.8293 7.296 30.312C7.296 27.3253 6.16533 25.192 3.904 23.912ZM59.2785 48.488C59.2785 43.8373 60.7292 39.4 63.6305 35.176C66.8732 30.5253 70.7345 28.2 75.2145 28.2C79.7798 28.2 83.5132 30.376 86.4145 34.728C88.9745 38.6107 90.2545 42.9627 90.2545 47.784C90.2545 52.136 88.8038 56.1253 85.9025 59.752C82.8305 63.6773 79.1612 65.64 74.8945 65.64C69.9025 65.64 66.0198 63.9973 63.2465 60.712C60.6012 57.64 59.2785 53.5653 59.2785 48.488ZM78.4145 46.376C78.4145 44.2427 78.1372 42.0667 77.5825 39.848C76.8145 36.6907 75.7265 35.112 74.3185 35.112C73.3372 35.112 72.5905 35.7093 72.0785 36.904C71.6518 37.8427 71.4385 38.8667 71.4385 39.976C71.4385 41.9387 71.7585 43.7733 72.3985 45.48C73.2518 47.7413 74.4892 48.872 76.1105 48.872C76.7505 48.872 77.2838 48.6373 77.7105 48.168C78.1798 47.656 78.4145 47.0587 78.4145 46.376ZM108.215 36.2C106.849 36.2 105.825 37.224 105.143 39.272C104.673 40.68 104.439 42.2587 104.439 44.008C104.439 45.544 104.673 46.8667 105.143 47.976C105.783 49.4693 106.764 50.216 108.087 50.216C108.94 50.216 109.58 50.024 110.007 49.64C110.689 49.0853 111.031 46.312 111.031 41.32C111.031 37.9067 110.092 36.2 108.215 36.2ZM123.255 50.344C123.425 51.0267 124.023 52.4347 125.047 54.568C125.943 56.2747 126.391 57.64 126.391 58.664C126.391 60.6693 124.812 62.376 121.655 63.784C119.052 64.9787 116.599 65.576 114.295 65.576C113.484 65.576 112.503 65.2987 111.351 64.744C110.199 64.1467 109.324 63.848 108.727 63.848C108.129 63.848 107.212 64.0613 105.975 64.488C104.737 64.872 103.777 65.064 103.095 65.064C99.8518 65.064 97.1425 62.9947 94.9665 58.856C93.1745 55.4 92.2785 51.9013 92.2785 48.36C92.2785 44.6053 93.2598 40.6373 95.2225 36.456C97.5692 31.464 100.407 28.968 103.735 28.968C105.868 28.968 107.959 29.5867 110.007 30.824C110.476 31.1227 111.095 31.592 111.863 32.232C112.46 32.7013 112.801 32.936 112.887 32.936C112.759 29.7787 112.225 27.944 111.287 27.432C110.391 26.92 109.9 26.6213 109.815 26.536C109.345 26.152 109.111 25.512 109.111 24.616C109.111 22.9093 110.348 21.3307 112.823 19.88C116.065 18.0027 119.244 17.064 122.359 17.064C123.681 17.064 124.236 17.896 124.023 19.56L122.807 28.2C122.551 29.9493 122.273 32.8933 121.975 37.032C121.761 41.9813 122.188 46.4187 123.255 50.344ZM145.542 20.904C145.542 22.7387 144.539 24.3173 142.534 25.64C140.785 26.8347 138.95 27.432 137.03 27.432C135.366 27.432 133.958 27.048 132.806 26.28C131.483 25.3413 130.822 24.0827 130.822 22.504C130.822 20.84 131.867 19.3893 133.958 18.152C135.75 17.0427 137.563 16.488 139.398 16.488C140.934 16.488 142.278 16.8507 143.43 17.576C144.838 18.3867 145.542 19.496 145.542 20.904ZM129.478 36.072C129.478 34.024 131.163 32.2107 134.534 30.632C137.521 29.224 140.251 28.52 142.726 28.52C143.537 28.52 144.305 29.0107 145.03 29.992C145.798 30.9307 146.097 31.784 145.926 32.552C145.926 33.7467 145.67 35.5173 145.158 37.864C144.689 40.2107 144.454 42.0027 144.454 43.24C144.454 45.8427 145.265 49.2987 146.886 53.608C148.507 57.9173 149.318 60.1147 149.318 60.2C149.318 62.2907 148.038 63.912 145.478 65.064C143.473 65.9173 141.275 66.344 138.886 66.344C136.369 66.344 134.171 65.9173 132.294 65.064C129.862 63.9547 128.646 62.2907 128.646 60.072C128.646 59.7733 129.371 57.96 130.822 54.632C132.315 51.2613 133.126 48.04 133.254 44.968C133.297 43.56 133.147 42.1733 132.806 40.808C132.593 40.296 132.273 39.6987 131.846 39.016C131.291 38.7173 130.758 38.3973 130.246 38.056C129.734 37.7147 129.478 37.0533 129.478 36.072ZM174.185 24.936C174.185 26.3013 173.865 27.4747 173.225 28.456C172.499 29.608 171.497 30.184 170.217 30.184C168.766 30.184 167.401 29.224 166.121 27.304C164.841 25.3413 163.817 24.36 163.049 24.36C161.982 24.36 161.449 25.128 161.449 26.664C161.449 28.0293 162.174 29.928 163.625 32.36C165.161 34.9627 166.611 36.3493 167.977 36.52C168.915 36.52 169.897 36.5627 170.921 36.648C171.945 36.7333 172.457 37.352 172.457 38.504C172.457 41.2347 171.71 42.6 170.217 42.6C170.089 42.6 169.918 42.5787 169.705 42.536C169.449 42.536 169.257 42.536 169.128 42.536C168.574 42.536 168.19 42.6853 167.977 42.984C167.849 43.1973 167.934 44.4773 168.233 46.824C168.446 48.3173 168.659 49.832 168.873 51.368C168.915 51.9653 169.769 53.288 171.433 55.336C173.097 57.3413 173.95 59.0693 173.993 60.52C174.035 64.232 169.897 66.088 161.577 66.088C158.931 66.088 156.691 65.6187 154.857 64.68C152.51 63.4853 151.337 61.6933 151.337 59.304C151.337 58.4933 151.827 57.256 152.809 55.592C153.961 53.7147 154.643 52.4133 154.857 51.688C155.369 49.9387 155.923 47.1013 156.521 43.176C156.393 42.9627 156.137 42.856 155.753 42.856C155.539 42.856 155.155 42.8987 154.601 42.984C154.089 43.0693 153.705 43.112 153.449 43.112C152.723 43.112 152.233 42.8773 151.977 42.408C151.721 41.896 151.614 41.064 151.657 39.912C151.699 38.6747 151.934 37.8213 152.361 37.352C152.489 37.1813 153.15 37.096 154.345 37.096C155.923 37.096 156.713 36.776 156.713 36.136C156.67 35.4533 156.158 34.0453 155.177 31.912C154.238 29.736 153.769 28.136 153.769 27.112C153.769 23.9547 154.771 21.416 156.777 19.496C158.825 17.5333 161.406 16.552 164.521 16.552C167.166 16.552 169.427 17.32 171.305 18.856C173.225 20.392 174.185 22.4187 174.185 24.936ZM193.042 20.904C193.042 22.7387 192.039 24.3173 190.034 25.64C188.285 26.8347 186.45 27.432 184.53 27.432C182.866 27.432 181.458 27.048 180.306 26.28C178.983 25.3413 178.322 24.0827 178.322 22.504C178.322 20.84 179.367 19.3893 181.458 18.152C183.25 17.0427 185.063 16.488 186.898 16.488C188.434 16.488 189.778 16.8507 190.93 17.576C192.338 18.3867 193.042 19.496 193.042 20.904ZM176.978 36.072C176.978 34.024 178.663 32.2107 182.034 30.632C185.021 29.224 187.751 28.52 190.226 28.52C191.037 28.52 191.805 29.0107 192.53 29.992C193.298 30.9307 193.597 31.784 193.426 32.552C193.426 33.7467 193.17 35.5173 192.658 37.864C192.189 40.2107 191.954 42.0027 191.954 43.24C191.954 45.8427 192.765 49.2987 194.386 53.608C196.007 57.9173 196.818 60.1147 196.818 60.2C196.818 62.2907 195.538 63.912 192.978 65.064C190.973 65.9173 188.775 66.344 186.386 66.344C183.869 66.344 181.671 65.9173 179.794 65.064C177.362 63.9547 176.146 62.2907 176.146 60.072C176.146 59.7733 176.871 57.96 178.322 54.632C179.815 51.2613 180.626 48.04 180.754 44.968C180.797 43.56 180.647 42.1733 180.306 40.808C180.093 40.296 179.773 39.6987 179.346 39.016C178.791 38.7173 178.258 38.3973 177.746 38.056C177.234 37.7147 176.978 37.0533 176.978 36.072ZM217.973 51.24C218.655 51.112 219.594 50.728 220.789 50.088C221.855 49.4907 222.709 49.192 223.349 49.192C224.543 49.192 225.567 49.5973 226.421 50.408C227.317 51.176 227.765 52.1573 227.765 53.352C227.765 56.9787 226.421 59.9867 223.733 62.376C221.087 64.7227 217.93 65.896 214.26 65.896C209.567 65.896 205.855 64.0613 203.125 60.392C200.65 57.1067 199.413 53.0533 199.413 48.232C199.413 43.2827 200.778 38.888 203.509 35.048C206.581 30.824 210.506 28.712 215.285 28.712C218.741 28.712 221.578 29.6507 223.797 31.528C226.186 33.5333 227.381 36.2213 227.381 39.592C227.381 41 226.613 42.0667 225.077 42.792C223.711 43.432 221.983 43.752 219.893 43.752C217.461 43.752 215.434 43.368 213.812 42.6C213.343 42.3867 212.938 42.28 212.597 42.28C211.999 42.28 211.551 42.5787 211.253 43.176C211.125 43.6453 211.061 44.136 211.061 44.648C211.061 46.056 211.637 47.464 212.789 48.872C213.983 50.28 215.285 51.0693 216.693 51.24H217.973ZM214.901 34.216C213.834 34.216 212.853 34.536 211.957 35.176C211.103 35.7733 210.677 36.584 210.677 37.608C210.677 38.4187 211.466 38.824 213.045 38.824C215.818 38.824 217.29 38.76 217.461 38.632C217.973 38.5893 218.229 38.184 218.229 37.416C218.229 36.4773 217.887 35.7093 217.205 35.112C216.565 34.5147 215.797 34.216 214.901 34.216ZM231.955 38.44C230.845 37.5013 230.291 36.648 230.291 35.88C230.291 33.832 231.848 32.0827 234.963 30.632C237.565 29.4373 240.04 28.84 242.387 28.84C243.325 28.84 243.859 29.1387 243.987 29.736C243.987 29.608 243.987 30.2693 243.987 31.72L244.051 32.488C244.051 32.7013 244.136 32.872 244.307 33C244.477 33.128 244.627 33.1707 244.755 33.128C245.224 32.9573 246.205 32.0827 247.699 30.504C248.936 29.2667 250.472 28.648 252.307 28.648C254.269 28.648 255.805 29.608 256.915 31.528C257.853 33.1493 258.323 34.984 258.323 37.032C258.323 38.7813 257.725 40.296 256.531 41.576C255.336 42.856 253.864 43.496 252.115 43.496C250.835 43.496 249.875 43.112 249.235 42.344C248.851 41.832 248.445 40.8507 248.019 39.4C247.805 39.016 247.485 38.8027 247.059 38.76C246.291 38.76 245.693 39.72 245.267 41.64C245.011 42.92 244.883 44.2427 244.883 45.608C244.883 48.04 245.416 50.344 246.483 52.52C246.952 53.5013 247.912 55.0587 249.363 57.192C250.429 58.6853 250.963 59.8373 250.963 60.648C250.963 64.0613 247.315 65.768 240.019 65.768C232.979 65.768 229.459 63.848 229.459 60.008C229.459 60.2213 230.227 58.28 231.763 54.184C233.299 50.0453 234.067 46.9307 234.067 44.84C234.067 42.5787 234.024 41.2347 233.939 40.808C233.725 40.1253 233.064 39.336 231.955 38.44ZM2.432 103.616C2.432 101.909 3.66933 100.331 6.144 98.88C9.38667 97.0027 12.5653 96.064 15.68 96.064C17.0027 96.064 17.536 96.896 17.28 98.56L15.488 110.976V111.872C15.488 114.475 15.9787 118.251 16.96 123.2C17.856 127.723 18.7733 131.413 19.712 134.272C19.8827 134.699 20.3307 135.403 21.056 136.384C21.7813 137.323 22.144 138.048 22.144 138.56C22.144 142.699 18.6027 144.768 11.52 144.768C8.832 144.768 6.61333 144.363 4.864 143.552C2.432 142.485 1.216 140.757 1.216 138.368C1.216 137.813 1.472 137.216 1.984 136.576C2.624 135.765 3.008 135.168 3.136 134.784C3.86133 132.352 4.56533 128.832 5.248 124.224C5.97333 119.573 6.336 115.968 6.336 113.408V113.088C6.29333 113.045 6.272 112.981 6.272 112.896C6.272 109.525 5.824 107.435 4.928 106.624C4.37333 106.283 3.81867 105.941 3.264 105.6C2.70933 105.259 2.432 104.597 2.432 103.616ZM39.061 101.888C39.061 105.173 37.973 108.907 35.797 113.088C33.365 117.909 30.6983 120.32 27.797 120.32C26.3463 120.32 25.621 119.701 25.621 118.464C25.621 118.123 26.2397 117.12 27.477 115.456C28.7143 113.792 29.333 112.32 29.333 111.04C29.333 110.485 28.565 109.205 27.029 107.2C25.493 105.152 24.725 103.339 24.725 101.76C24.725 99.712 25.429 97.7493 26.837 95.872C28.373 93.824 30.1437 92.8 32.149 92.8C34.4103 92.8 36.181 93.8027 37.461 95.808C38.5277 97.5147 39.061 99.5413 39.061 101.888ZM59.9725 130.24C60.6552 130.112 61.5938 129.728 62.7885 129.088C63.8552 128.491 64.7085 128.192 65.3485 128.192C66.5432 128.192 67.5672 128.597 68.4205 129.408C69.3165 130.176 69.7645 131.157 69.7645 132.352C69.7645 135.979 68.4205 138.987 65.7325 141.376C63.0872 143.723 59.9298 144.896 56.2605 144.896C51.5672 144.896 47.8552 143.061 45.1245 139.392C42.6498 136.107 41.4125 132.053 41.4125 127.232C41.4125 122.283 42.7778 117.888 45.5085 114.048C48.5805 109.824 52.5058 107.712 57.2845 107.712C60.7405 107.712 63.5778 108.651 65.7965 110.528C68.1858 112.533 69.3805 115.221 69.3805 118.592C69.3805 120 68.6125 121.067 67.0765 121.792C65.7112 122.432 63.9832 122.752 61.8925 122.752C59.4605 122.752 57.4338 122.368 55.8125 121.6C55.3432 121.387 54.9378 121.28 54.5965 121.28C53.9992 121.28 53.5512 121.579 53.2525 122.176C53.1245 122.645 53.0605 123.136 53.0605 123.648C53.0605 125.056 53.6365 126.464 54.7885 127.872C55.9832 129.28 57.2845 130.069 58.6925 130.24H59.9725ZM56.9005 113.216C55.8338 113.216 54.8525 113.536 53.9565 114.176C53.1032 114.773 52.6765 115.584 52.6765 116.608C52.6765 117.419 53.4658 117.824 55.0445 117.824C57.8178 117.824 59.2898 117.76 59.4605 117.632C59.9725 117.589 60.2285 117.184 60.2285 116.416C60.2285 115.477 59.8872 114.709 59.2045 114.112C58.5645 113.515 57.7965 113.216 56.9005 113.216ZM57.1565 96.64C57.9245 96.64 58.7352 97.0027 59.5885 97.728C60.5698 98.624 61.0605 99.712 61.0605 100.992C61.0605 102.059 60.5912 102.805 59.6525 103.232C59.3538 103.744 58.1378 104.491 56.0045 105.472C53.9138 106.411 52.3992 106.944 51.4605 107.072C51.1618 107.2 50.6285 107.264 49.8605 107.264C48.3672 107.264 47.6205 106.283 47.6205 104.32C47.6205 103.125 48.5805 101.845 50.5005 100.48C50.5858 100.395 51.2045 99.9467 52.3565 99.136C53.5512 98.3253 54.2125 97.8987 54.3405 97.856C55.4925 97.0453 56.4312 96.64 57.1565 96.64ZM77.5995 120.96C76.8315 119.808 75.4662 118.699 73.5035 117.632C72.5648 117.12 72.0742 116.843 72.0315 116.8C71.5622 116.373 71.3275 115.712 71.3275 114.816C71.3275 113.109 72.5862 111.531 75.1035 110.08C77.6635 108.587 80.3515 107.669 83.1675 107.328C83.9355 107.2 84.6608 107.136 85.3435 107.136C87.8608 107.136 89.1195 108.011 89.1195 109.76C89.1195 110.315 89.0555 111.701 88.9275 113.92C88.7995 116.139 88.7355 117.504 88.7355 118.016C88.7355 118.869 88.9702 119.872 89.4395 121.024C90.0368 122.389 90.7195 123.072 91.4875 123.072C92.2982 123.072 93.0022 122.389 93.5995 121.024C94.1542 119.829 94.4315 118.763 94.4315 117.824C94.4315 117.227 94.1968 116.331 93.7275 115.136C93.2582 113.941 93.0235 113.045 93.0235 112.448C93.0235 110.827 93.9622 109.611 95.8395 108.8C97.2902 108.203 98.9542 107.904 100.832 107.904C105.184 107.904 107.36 109.205 107.36 111.808C107.36 112.832 106.656 114.091 105.248 115.584C103.541 117.419 102.56 118.613 102.304 119.168C102.09 119.552 100.256 124.053 96.7995 132.672C93.8555 140.011 92.0635 143.829 91.4235 144.128C90.6128 144.512 89.9088 144.704 89.3115 144.704C86.2395 144.704 82.6982 137.984 78.6875 124.544C78.2182 122.496 77.8555 121.301 77.5995 120.96ZM132.59 104.32C132.59 106.283 131.395 107.264 129.006 107.264C127.854 107.264 125.678 106.773 122.478 105.792C119.107 104.725 117.144 103.872 116.59 103.232C115.31 102.848 114.67 102.101 114.67 100.992C114.67 99.84 115.246 98.8373 116.398 97.984C117.55 97.088 118.702 96.64 119.854 96.64C120.707 96.64 123.395 97.5573 127.918 99.392C128.472 99.7333 129.112 100.181 129.838 100.736C130.435 101.291 131.032 101.845 131.63 102.4C132.27 102.955 132.59 103.595 132.59 104.32ZM127.598 130.24C128.28 130.112 129.219 129.728 130.414 129.088C131.48 128.491 132.334 128.192 132.974 128.192C134.168 128.192 135.192 128.597 136.046 129.408C136.942 130.176 137.39 131.157 137.39 132.352C137.39 135.979 136.046 138.987 133.358 141.376C130.712 143.723 127.555 144.896 123.885 144.896C119.192 144.896 115.48 143.061 112.75 139.392C110.275 136.107 109.038 132.053 109.038 127.232C109.038 122.283 110.403 117.888 113.134 114.048C116.206 109.824 120.131 107.712 124.91 107.712C128.366 107.712 131.203 108.651 133.422 110.528C135.811 112.533 137.006 115.221 137.006 118.592C137.006 120 136.238 121.067 134.702 121.792C133.336 122.432 131.608 122.752 129.518 122.752C127.086 122.752 125.059 122.368 123.438 121.6C122.968 121.387 122.563 121.28 122.222 121.28C121.624 121.28 121.176 121.579 120.878 122.176C120.75 122.645 120.686 123.136 120.686 123.648C120.686 125.056 121.262 126.464 122.414 127.872C123.608 129.28 124.91 130.069 126.318 130.24H127.598ZM124.526 113.216C123.459 113.216 122.478 113.536 121.582 114.176C120.728 114.773 120.302 115.584 120.302 116.608C120.302 117.419 121.091 117.824 122.67 117.824C125.443 117.824 126.915 117.76 127.086 117.632C127.598 117.589 127.854 117.184 127.854 116.416C127.854 115.477 127.512 114.709 126.83 114.112C126.19 113.515 125.422 113.216 124.526 113.216ZM142.407 117.824C141.554 117.397 141.042 117.099 140.871 116.928C140.359 116.459 140.103 115.776 140.103 114.88C140.103 113.216 141.34 111.659 143.815 110.208C146.503 108.629 148.892 107.84 150.983 107.84C152.178 107.84 152.732 108.565 152.647 110.016C152.647 110.229 152.668 110.549 152.711 110.976C152.839 111.659 153.074 112 153.415 112C153.543 112 153.692 111.936 153.863 111.808C155.1 110.784 156.359 109.76 157.639 108.736C158.876 107.883 160.519 107.456 162.567 107.456C165.682 107.456 167.9 107.925 169.223 108.864C170.332 109.632 170.994 110.976 171.207 112.896C171.25 113.28 171.271 115.435 171.271 119.36C171.271 122.219 172.124 126.251 173.831 131.456C175.538 136.661 176.391 139.712 176.391 140.608C176.391 143.253 173.127 144.576 166.599 144.576C164.594 144.576 162.887 144.128 161.479 143.232C159.772 142.251 158.919 140.8 158.919 138.88C158.919 138.411 159.111 137.707 159.495 136.768C159.922 135.829 160.156 135.104 160.199 134.592C160.839 127.296 161.159 123.499 161.159 123.2C161.159 118.336 160.092 115.904 157.959 115.904C156.508 115.904 155.591 116.907 155.207 118.912C155.079 119.637 155.015 121.237 155.015 123.712C155.015 125.248 155.271 127.424 155.783 130.24C156.338 133.013 156.615 134.955 156.615 136.064C156.615 138.965 155.74 141.163 153.991 142.656C152.284 144.107 150.002 144.832 147.143 144.832C144.839 144.832 143.175 144.576 142.151 144.064C140.615 143.339 139.847 141.973 139.847 139.968C139.847 139.115 140.444 136.896 141.639 133.312C142.962 129.344 143.772 126.315 144.071 124.224C144.028 122.176 143.836 120.597 143.495 119.488C143.196 119.189 142.834 118.635 142.407 117.824ZM197.785 130.24C198.468 130.112 199.406 129.728 200.601 129.088C201.668 128.491 202.521 128.192 203.161 128.192C204.356 128.192 205.38 128.597 206.233 129.408C207.129 130.176 207.577 131.157 207.577 132.352C207.577 135.979 206.233 138.987 203.545 141.376C200.9 143.723 197.742 144.896 194.073 144.896C189.38 144.896 185.668 143.061 182.937 139.392C180.462 136.107 179.225 132.053 179.225 127.232C179.225 122.283 180.59 117.888 183.321 114.048C186.393 109.824 190.318 107.712 195.097 107.712C198.553 107.712 201.39 108.651 203.609 110.528C205.998 112.533 207.193 115.221 207.193 118.592C207.193 120 206.425 121.067 204.889 121.792C203.524 122.432 201.796 122.752 199.705 122.752C197.273 122.752 195.246 122.368 193.625 121.6C193.156 121.387 192.75 121.28 192.409 121.28C191.812 121.28 191.364 121.579 191.065 122.176C190.937 122.645 190.873 123.136 190.873 123.648C190.873 125.056 191.449 126.464 192.601 127.872C193.796 129.28 195.097 130.069 196.505 130.24H197.785ZM194.713 113.216C193.646 113.216 192.665 113.536 191.769 114.176C190.916 114.773 190.489 115.584 190.489 116.608C190.489 117.419 191.278 117.824 192.857 117.824C195.63 117.824 197.102 117.76 197.273 117.632C197.785 117.589 198.041 117.184 198.041 116.416C198.041 115.477 197.7 114.709 197.017 114.112C196.377 113.515 195.609 113.216 194.713 113.216ZM210.743 117.696C209.804 117.184 209.292 116.907 209.207 116.864C208.738 116.437 208.503 115.776 208.503 114.88C208.503 113.216 209.762 111.659 212.279 110.208C215.479 108.288 218.658 107.328 221.815 107.328C223.095 107.328 223.628 108.16 223.415 109.824L223.159 111.552C223.202 111.979 223.394 112.192 223.735 112.192C224.29 112.192 225.228 111.637 226.551 110.528C227.319 110.059 228.087 109.568 228.855 109.056C229.794 108.544 230.668 108.245 231.479 108.16C234.892 107.819 237.751 109.632 240.055 113.6C241.548 111.765 243.127 110.528 244.791 109.888C246.327 109.333 248.503 109.056 251.319 109.056C254.519 109.056 256.482 110.187 257.207 112.448C257.506 113.216 257.655 115.605 257.655 119.616C257.655 122.219 258.359 125.867 259.767 130.56C261.175 135.253 261.879 137.984 261.879 138.752C261.879 140.672 260.94 142.187 259.063 143.296C257.484 144.235 255.692 144.704 253.687 144.704C248.268 144.704 245.559 142.784 245.559 138.944C245.559 137.195 245.794 134.549 246.263 131.008C246.775 127.467 247.031 124.779 247.031 122.944C247.031 120.939 246.946 119.552 246.775 118.784C246.434 117.205 245.666 116.416 244.471 116.416C243.02 116.459 242.146 117.739 241.847 120.256C241.804 120.725 241.783 122.645 241.783 126.016C241.783 127.125 242.018 128.704 242.487 130.752C242.999 132.757 243.255 134.272 243.255 135.296C243.255 141.568 240.972 144.704 236.407 144.704C231.458 144.704 228.983 143.061 228.983 139.776C228.983 138.325 229.26 135.915 229.815 132.544C230.412 129.131 230.711 126.571 230.711 124.864C230.711 120.043 230.135 117.547 228.983 117.376C226.423 117.077 225.143 119.403 225.143 124.352C225.143 125.12 225.292 126.208 225.591 127.616C225.932 129.024 226.103 130.069 226.103 130.752C226.103 134.421 225.911 137.024 225.527 138.56C224.887 141.205 223.543 143.061 221.495 144.128C220.428 144.64 218.743 144.896 216.439 144.896C213.836 144.896 212.172 144.576 211.447 143.936C210.252 142.912 209.655 141.653 209.655 140.16C209.655 139.221 209.975 137.835 210.615 136C211.298 134.123 211.639 132.779 211.639 131.968C211.639 131.115 211.746 129.835 211.959 128.128C212.172 126.421 212.3 125.184 212.343 124.416C212.428 120.576 211.895 118.336 210.743 117.696ZM282.91 130.24C283.593 130.112 284.531 129.728 285.726 129.088C286.793 128.491 287.646 128.192 288.286 128.192C289.481 128.192 290.505 128.597 291.358 129.408C292.254 130.176 292.702 131.157 292.702 132.352C292.702 135.979 291.358 138.987 288.67 141.376C286.025 143.723 282.867 144.896 279.198 144.896C274.505 144.896 270.793 143.061 268.062 139.392C265.587 136.107 264.35 132.053 264.35 127.232C264.35 122.283 265.715 117.888 268.446 114.048C271.518 109.824 275.443 107.712 280.222 107.712C283.678 107.712 286.515 108.651 288.734 110.528C291.123 112.533 292.318 115.221 292.318 118.592C292.318 120 291.55 121.067 290.014 121.792C288.649 122.432 286.921 122.752 284.83 122.752C282.398 122.752 280.371 122.368 278.75 121.6C278.281 121.387 277.875 121.28 277.534 121.28C276.937 121.28 276.489 121.579 276.19 122.176C276.062 122.645 275.998 123.136 275.998 123.648C275.998 125.056 276.574 126.464 277.726 127.872C278.921 129.28 280.222 130.069 281.63 130.24H282.91ZM279.838 113.216C278.771 113.216 277.79 113.536 276.894 114.176C276.041 114.773 275.614 115.584 275.614 116.608C275.614 117.419 276.403 117.824 277.982 117.824C280.755 117.824 282.227 117.76 282.398 117.632C282.91 117.589 283.166 117.184 283.166 116.416C283.166 115.477 282.825 114.709 282.142 114.112C281.502 113.515 280.734 113.216 279.838 113.216ZM297.532 117.824C296.679 117.397 296.167 117.099 295.996 116.928C295.484 116.459 295.228 115.776 295.228 114.88C295.228 113.216 296.465 111.659 298.94 110.208C301.628 108.629 304.017 107.84 306.108 107.84C307.303 107.84 307.857 108.565 307.772 110.016C307.772 110.229 307.793 110.549 307.836 110.976C307.964 111.659 308.199 112 308.54 112C308.668 112 308.817 111.936 308.988 111.808C310.225 110.784 311.484 109.76 312.764 108.736C314.001 107.883 315.644 107.456 317.692 107.456C320.807 107.456 323.025 107.925 324.348 108.864C325.457 109.632 326.119 110.976 326.332 112.896C326.375 113.28 326.396 115.435 326.396 119.36C326.396 122.219 327.249 126.251 328.956 131.456C330.663 136.661 331.516 139.712 331.516 140.608C331.516 143.253 328.252 144.576 321.724 144.576C319.719 144.576 318.012 144.128 316.604 143.232C314.897 142.251 314.044 140.8 314.044 138.88C314.044 138.411 314.236 137.707 314.62 136.768C315.047 135.829 315.281 135.104 315.324 134.592C315.964 127.296 316.284 123.499 316.284 123.2C316.284 118.336 315.217 115.904 313.084 115.904C311.633 115.904 310.716 116.907 310.332 118.912C310.204 119.637 310.14 121.237 310.14 123.712C310.14 125.248 310.396 127.424 310.908 130.24C311.463 133.013 311.74 134.955 311.74 136.064C311.74 138.965 310.865 141.163 309.116 142.656C307.409 144.107 305.127 144.832 302.268 144.832C299.964 144.832 298.3 144.576 297.276 144.064C295.74 143.339 294.972 141.973 294.972 139.968C294.972 139.115 295.569 136.896 296.764 133.312C298.087 129.344 298.897 126.315 299.196 124.224C299.153 122.176 298.961 120.597 298.62 119.488C298.321 119.189 297.959 118.635 297.532 117.824ZM358.35 136.512C358.35 139.115 357.027 141.227 354.382 142.848C352.163 144.213 349.667 144.896 346.894 144.896C339.854 144.896 336.334 141.568 336.334 134.912C336.334 133.077 336.718 130.325 337.486 126.656C338.254 122.987 338.638 120.192 338.638 118.272C338.638 116.437 338.169 115.328 337.23 114.944C336.334 114.859 335.459 114.773 334.606 114.688C333.625 114.475 333.113 113.685 333.07 112.32C332.985 110.784 333.262 109.739 333.902 109.184C334.329 108.8 335.075 108.608 336.142 108.608C336.27 108.608 336.462 108.629 336.718 108.672C336.974 108.672 337.166 108.672 337.294 108.672C338.574 108.672 339.449 108.352 339.918 107.712C340.643 106.773 341.283 105.408 341.838 103.616C342.393 101.824 342.862 100.672 343.246 100.16C343.971 99.1787 345.123 98.688 346.702 98.688C349.475 98.688 350.862 99.968 350.862 102.528C350.862 102.784 350.841 103.189 350.798 103.744C350.798 104.299 350.798 104.704 350.798 104.96C350.798 106.283 351.033 107.264 351.502 107.904C352.27 108.928 353.251 109.44 354.446 109.44C354.659 109.44 354.979 109.419 355.406 109.376C355.833 109.333 356.131 109.312 356.302 109.312C357.283 109.312 357.774 110.229 357.774 112.064C357.774 113.728 356.942 114.56 355.278 114.56C355.065 114.56 354.745 114.56 354.318 114.56C353.891 114.517 353.571 114.496 353.358 114.496C351.054 114.496 349.902 115.925 349.902 118.784C349.902 120.619 350.329 123.157 351.182 126.4C352.163 130.197 353.23 132.373 354.382 132.928C355.278 133.227 356.153 133.547 357.006 133.888C357.902 134.229 358.35 135.104 358.35 136.512Z" fill="black"/>
</svg>
